<svg xmlns="http://www.w3.org/2000/svg" width="888" height="888" viewBox="0 0 888 888">
<g>
<path d="M 480.00 689.05 C470.31,691.83 443.83,692.69 434.47,690.54 C420.17,687.25 406.77,680.69 394.76,671.13 C378.93,658.51 368.04,642.21 361.79,621.76 L 359.57 614.50 L 359.03 490.00 L 358.48 365.50 L 356.22 359.50 C349.62,341.98 335.65,331.01 315.64,327.63 C304.34,325.72 302.00,323.84 302.00,316.63 L 302.00 311.60 L 342.25 271.18 C389.93,223.30 400.82,213.57 413.50,207.49 C428.97,200.08 444.15,197.53 462.48,199.25 C475.58,200.49 498.04,208.01 500.50,212.00 C500.85,212.56 502.57,213.63 504.32,214.36 C508.34,216.04 522.14,227.96 521.42,229.13 C521.12,229.61 521.57,230.00 522.41,230.00 C524.59,230.00 533.45,242.87 538.60,253.50 C540.12,256.65 541.35,258.84 542.35,261.14 C546.88,271.63 546.51,284.25 547.00,399.50 C547.60,538.26 547.19,530.20 554.22,541.49 C563.07,555.69 575.20,563.64 591.50,565.93 C597.40,566.75 598.93,567.39 601.25,569.97 C605.36,574.54 604.97,578.59 599.80,585.16 C593.19,593.55 523.45,663.49 514.00,671.19 C504.54,678.91 491.49,685.76 480.00,689.05 ZM 446.42 689.00 C451.96,689.39 457.62,689.58 459.00,689.40 C460.38,689.22 464.20,688.81 467.50,688.48 C474.40,687.78 491.00,683.10 491.00,681.84 C491.00,681.38 491.57,681.00 492.28,681.00 C493.61,681.00 504.14,675.77 506.27,674.05 C506.95,673.50 510.20,670.85 513.50,668.16 C516.80,665.47 531.65,651.09 546.50,636.22 L 548.03 634.69 C595.88,586.76 602.19,580.43 601.16,575.70 C601.00,574.93 600.63,574.21 600.23,573.35 C598.48,569.68 598.29,569.59 589.09,567.98 C579.87,566.36 572.16,563.27 567.01,559.12 C556.80,550.90 550.27,542.68 547.18,534.16 L 544.76 527.50 L 544.94 407.00 L 544.94 405.90 C545.11,292.40 545.12,279.91 541.66,268.48 C541.22,267.02 540.72,265.59 540.16,263.97 C537.44,256.06 530.62,242.72 529.74,243.59 C529.46,243.87 528.75,242.73 528.17,241.05 C527.58,239.37 526.41,238.00 525.55,238.00 C524.66,238.00 524.00,237.14 524.00,235.99 C524.00,233.51 520.09,229.02 514.69,225.31 C512.45,223.76 508.58,220.59 506.09,218.25 C503.61,215.91 500.77,214.00 499.79,214.00 C498.80,214.00 498.00,213.64 498.00,213.19 C498.00,212.75 496.09,211.61 493.75,210.66 C491.41,209.71 487.88,208.07 485.90,207.02 C477.47,202.55 455.30,199.43 443.50,201.05 C432.93,202.51 423.02,205.03 418.00,207.56 C404.22,214.49 401.09,216.55 393.53,223.69 C392.26,224.89 390.94,225.61 390.61,225.27 C390.27,224.94 390.00,225.16 390.00,225.77 C390.00,226.78 382.01,234.96 361.32,255.13 C357.02,259.32 351.68,264.72 349.47,267.13 C347.25,269.53 342.50,274.20 338.92,277.50 C335.34,280.80 330.07,286.09 327.21,289.26 C324.34,292.43 322.00,294.79 322.00,294.51 C322.00,294.03 317.13,299.10 308.10,308.99 C305.74,311.59 304.00,314.48 304.00,315.84 C304.00,318.95 307.03,323.98 308.97,324.07 C311.12,324.17 315.87,324.79 320.00,325.51 C339.63,328.93 357.84,347.64 360.41,367.00 C360.81,370.01 361.09,425.22 361.04,489.69 C360.94,605.06 360.97,607.04 363.01,615.33 C364.15,619.96 364.99,624.14 364.88,624.62 C364.57,625.89 371.74,640.55 375.82,646.99 C380.19,653.89 384.34,658.56 393.38,666.74 C400.90,673.54 403.09,674.95 417.24,682.12 C418.19,682.60 419.66,683.00 420.50,683.00 C421.34,683.00 422.81,683.43 423.76,683.95 C428.10,686.31 437.17,688.33 446.42,689.00 ZM 210.16 690.58 C201.09,692.33 179.66,692.27 171.47,690.47 C168.15,689.75 162.53,688.15 158.97,686.94 C129.70,676.92 104.33,651.51 95.16,623.00 C88.99,603.83 89.63,579.02 96.77,561.06 C102.70,546.13 106.90,540.98 143.25,504.00 C213.39,432.65 244.47,402.00 248.96,399.76 C254.54,396.98 267.30,396.70 273.14,399.23 C278.71,401.64 284.51,407.45 287.13,413.26 L 289.50 418.50 L 289.77 510.94 L 289.77 511.28 C290.02,597.88 290.06,610.97 286.17,622.77 C285.47,624.88 284.65,626.96 283.68,629.40 C275.24,650.67 256.51,671.69 237.50,681.24 C229.93,685.05 218.35,689.00 210.16,690.58 ZM 183.50 688.98 C194.10,689.83 203.02,689.33 212.00,687.40 C224.31,684.75 243.15,675.73 251.50,668.48 C257.94,662.89 263.24,657.54 265.76,654.10 C267.20,652.12 268.91,650.05 269.55,649.49 C270.20,648.94 272.02,646.06 273.61,643.11 C275.20,640.15 277.27,636.33 278.21,634.62 C280.52,630.39 284.48,617.04 285.95,608.50 C286.84,603.30 287.06,578.01 286.82,510.00 C286.53,431.51 286.27,417.97 284.98,414.77 C283.38,410.79 277.17,403.00 275.60,403.00 C275.08,403.00 273.83,402.25 272.82,401.34 C270.45,399.20 255.78,399.23 250.62,401.39 C248.70,402.19 244.28,405.62 240.81,409.01 C237.34,412.41 233.49,415.87 232.25,416.71 C231.01,417.54 230.00,418.54 230.00,418.91 C230.00,419.29 215.79,433.97 198.41,451.55 C181.04,469.12 166.53,483.95 166.16,484.50 C165.80,485.05 163.63,487.15 161.34,489.17 C159.05,491.19 157.43,493.10 157.75,493.42 C158.07,493.74 157.82,494.00 157.18,494.00 C156.01,494.00 149.14,500.70 129.42,521.06 C103.58,547.74 98.32,556.47 94.48,579.00 C92.76,589.10 92.59,601.36 94.06,609.57 C95.69,618.67 102.43,637.01 104.88,639.00 C105.22,639.28 106.18,640.68 107.00,642.13 C113.20,652.99 120.13,660.71 131.06,668.91 C146.55,680.54 164.71,687.49 183.50,688.98 Z" fill="rgb(3,12,28)"/>
<path d="M 446.42 689.00 C437.17,688.33 428.10,686.31 423.76,683.95 C422.81,683.43 421.34,683.00 420.50,683.00 C419.66,683.00 418.19,682.60 417.24,682.12 C403.09,674.95 400.90,673.54 393.38,666.74 C384.34,658.56 380.19,653.89 375.82,646.99 C371.74,640.55 364.57,625.89 364.88,624.62 C364.99,624.14 364.15,619.96 363.01,615.33 C360.97,607.04 360.94,605.06 361.04,489.69 C361.09,425.22 360.81,370.01 360.41,367.00 C357.84,347.64 339.63,328.93 320.00,325.51 C315.87,324.79 311.12,324.17 308.97,324.07 C307.03,323.98 304.00,318.95 304.00,315.84 C304.00,314.48 305.74,311.59 308.10,308.99 C317.13,299.10 322.00,294.03 322.00,294.51 C322.00,294.79 324.34,292.43 327.21,289.26 C330.07,286.09 335.34,280.80 338.92,277.50 C342.50,274.20 347.25,269.53 349.47,267.13 C351.68,264.72 357.02,259.32 361.32,255.13 C382.01,234.96 390.00,226.78 390.00,225.77 C390.00,225.16 390.27,224.94 390.61,225.27 C390.94,225.61 392.26,224.89 393.53,223.69 C401.09,216.55 404.22,214.49 418.00,207.56 C423.02,205.03 432.93,202.51 443.50,201.05 C455.30,199.43 477.47,202.55 485.90,207.02 C487.88,208.07 491.41,209.71 493.75,210.66 C496.09,211.61 498.00,212.75 498.00,213.19 C498.00,213.64 498.80,214.00 499.79,214.00 C500.77,214.00 503.61,215.91 506.09,218.25 C508.58,220.59 512.45,223.76 514.69,225.31 C520.09,229.02 524.00,233.51 524.00,235.99 C524.00,237.14 524.66,238.00 525.55,238.00 C526.41,238.00 527.58,239.37 528.17,241.05 C528.75,242.73 529.46,243.87 529.74,243.59 C530.62,242.72 537.44,256.06 540.16,263.97 C540.72,265.59 541.22,267.02 541.66,268.48 C545.12,279.91 545.11,292.40 544.94,405.90 L 544.94 407.00 L 544.76 527.50 L 547.18 534.16 C550.27,542.68 556.80,550.90 567.01,559.12 C572.16,563.27 579.87,566.36 589.09,567.98 C598.29,569.59 598.48,569.68 600.23,573.35 C600.63,574.21 601.00,574.93 601.16,575.70 C602.19,580.43 595.88,586.76 548.03,634.69 L 546.50 636.22 C531.65,651.09 516.80,665.47 513.50,668.16 C510.20,670.85 506.95,673.50 506.27,674.05 C504.14,675.77 493.61,681.00 492.28,681.00 C491.57,681.00 491.00,681.38 491.00,681.84 C491.00,683.10 474.40,687.78 467.50,688.48 C464.20,688.81 460.38,689.22 459.00,689.40 C457.62,689.58 451.96,689.39 446.42,689.00 ZM 183.50 688.98 C164.71,687.49 146.55,680.54 131.06,668.91 C120.13,660.71 113.20,652.99 107.00,642.13 C106.18,640.68 105.22,639.28 104.88,639.00 C102.43,637.01 95.69,618.67 94.06,609.57 C92.59,601.36 92.76,589.10 94.48,579.00 C98.32,556.47 103.58,547.74 129.42,521.06 C149.14,500.70 156.01,494.00 157.18,494.00 C157.82,494.00 158.07,493.74 157.75,493.42 C157.43,493.10 159.05,491.19 161.34,489.17 C163.63,487.15 165.80,485.05 166.16,484.50 C166.53,483.95 181.04,469.12 198.41,451.55 C215.79,433.97 230.00,419.29 230.00,418.91 C230.00,418.54 231.01,417.54 232.25,416.71 C233.49,415.87 237.34,412.41 240.81,409.01 C244.28,405.62 248.70,402.19 250.62,401.39 C255.78,399.23 270.45,399.20 272.82,401.34 C273.83,402.25 275.08,403.00 275.60,403.00 C277.17,403.00 283.38,410.79 284.98,414.77 C286.27,417.97 286.53,431.51 286.82,510.00 C287.06,578.01 286.84,603.30 285.95,608.50 C284.48,617.04 280.52,630.39 278.21,634.62 C277.27,636.33 275.20,640.15 273.61,643.11 C272.02,646.06 270.20,648.94 269.55,649.49 C268.91,650.05 267.20,652.12 265.76,654.10 C263.24,657.54 257.94,662.89 251.50,668.48 C243.15,675.73 224.31,684.75 212.00,687.40 C203.02,689.33 194.10,689.83 183.50,688.98 ZM 499.49 210.94 C508.28,215.95 516.31,222.55 523.23,230.35 C522.90,230.12 522.63,230.00 522.41,230.00 C521.57,230.00 521.12,229.61 521.42,229.13 C522.14,227.96 508.34,216.04 504.32,214.36 C502.57,213.63 500.85,212.56 500.50,212.00 C500.29,211.67 499.95,211.31 499.49,210.94 ZM 390.18 224.40 C394.86,219.91 398.01,216.98 399.00,216.20 C401.39,214.33 404.63,212.29 408.22,210.33 C403.38,213.23 398.04,217.32 390.18,224.40 ZM 469.05 200.23 C475.62,201.35 482.06,203.13 488.16,205.53 C482.30,203.41 475.27,201.42 469.05,200.23 ZM 533.08 243.48 C535.25,246.91 537.23,250.48 538.99,254.18 C540.39,257.13 541.53,259.21 542.46,261.39 C544.95,267.23 545.92,273.73 546.38,299.46 C545.91,273.74 544.92,267.10 542.35,261.14 C541.35,258.84 540.12,256.65 538.60,253.50 C537.01,250.22 535.07,246.74 533.08,243.48 ZM 421.40 204.12 C424.33,202.97 427.11,202.03 429.50,201.43 C432.56,200.67 435.69,200.07 438.87,199.64 C432.89,200.50 427.12,201.99 421.40,204.12 ZM 306.32 307.27 L 302.00 311.60 L 302.00 311.57 Z" fill="rgb(15,40,65)"/>
<path d="M 645.10 479.86 C637.25,482.50 629.25,480.73 622.61,474.89 C617.02,469.96 614.56,465.49 613.09,457.53 C611.67,449.83 611.61,294.08 613.03,278.09 C614.84,257.63 622.58,240.15 636.41,225.30 C651.38,209.21 667.04,200.48 688.86,196.03 C700.73,193.61 709.68,193.47 720.50,195.52 C741.82,199.56 756.35,206.82 771.25,220.87 C780.34,229.45 785.79,236.62 790.72,246.50 C798.65,262.37 801.14,272.94 801.12,290.63 C801.09,311.56 793.99,330.78 779.76,348.50 C770.15,360.45 662.17,469.04 654.50,474.47 C651.20,476.80 646.97,479.23 645.10,479.86 Z" fill="rgb(31,150,82)"/>
<path d="M 0.00 444.00 L 0.00 0.00 L 444.00 0.00 L 888.00 0.00 L 888.00 444.00 L 888.00 888.00 L 444.00 888.00 L 0.00 888.00 L 0.00 444.00 ZM 210.16 690.58 C218.35,689.00 229.93,685.05 237.50,681.24 C256.51,671.69 275.24,650.67 283.68,629.40 C290.08,613.29 290.07,613.42 289.77,510.94 L 289.50 418.50 L 287.13 413.26 C284.51,407.45 278.71,401.64 273.14,399.23 C267.30,396.70 254.54,396.98 248.96,399.76 C244.47,402.00 213.39,432.65 143.25,504.00 C106.90,540.98 102.70,546.13 96.77,561.06 C89.63,579.02 88.99,603.83 95.16,623.00 C104.33,651.51 129.70,676.92 158.97,686.94 C162.53,688.15 168.15,689.75 171.47,690.47 C179.66,692.27 201.09,692.33 210.16,690.58 ZM 480.00 689.05 C491.49,685.76 504.54,678.91 514.00,671.19 C523.45,663.49 593.19,593.55 599.80,585.16 C604.97,578.59 605.36,574.54 601.25,569.97 C598.93,567.39 597.40,566.75 591.50,565.93 C575.20,563.64 563.07,555.69 554.22,541.49 C547.19,530.20 547.60,538.26 547.00,399.50 C546.40,259.59 547.03,271.08 538.99,254.18 C529.71,234.69 514.54,218.68 496.50,209.31 C476.57,198.97 451.33,196.00 429.50,201.43 C420.55,203.66 406.07,210.68 399.00,216.20 C395.98,218.57 372.91,240.99 347.75,266.03 L 302.00 311.57 L 302.00 316.61 C302.00,323.84 304.33,325.72 315.64,327.63 C335.65,331.01 349.62,341.98 356.22,359.50 L 358.48 365.50 L 359.03 490.00 L 359.57 614.50 L 361.79 621.76 C368.04,642.21 378.93,658.51 394.76,671.13 C406.77,680.69 420.17,687.25 434.47,690.54 C443.83,692.69 470.31,691.83 480.00,689.05 ZM 645.10 479.86 C646.97,479.23 651.20,476.80 654.50,474.47 C662.17,469.04 770.15,360.45 779.76,348.50 C793.99,330.78 801.09,311.56 801.12,290.63 C801.14,272.94 798.65,262.37 790.72,246.50 C785.79,236.62 780.34,229.45 771.25,220.87 C756.35,206.82 741.82,199.56 720.50,195.52 C709.68,193.47 700.73,193.61 688.86,196.03 C667.04,200.48 651.38,209.21 636.41,225.30 C622.58,240.15 614.84,257.63 613.03,278.09 C611.61,294.08 611.67,449.83 613.09,457.53 C614.56,465.49 617.02,469.96 622.61,474.89 C629.25,480.73 637.25,482.50 645.10,479.86 Z" fill="rgb(253,253,254)"/>
</g>
</svg>